<?xml version="1.0" encoding="UTF-8" standalone="no"?>
<svg width="512px" height="256px" viewBox="0 0 512 256" version="1.1" xmlns="http://www.w3.org/2000/svg" xmlns:xlink="http://www.w3.org/1999/xlink" xmlns:sketch="http://www.bohemiancoding.com/sketch/ns">
    <!-- Generator: Sketch 3.4.2 (15855) - http://www.bohemiancoding.com/sketch -->
    <title>Desktop</title>
    <desc>Created with Sketch.</desc>
    <defs></defs>
    <g id="Welcome" stroke="none" stroke-width="1" fill="none" fill-rule="evenodd" sketch:type="MSPage">
        <g id="Desktop" sketch:type="MSArtboardGroup" fill="#4A4A4A">
            <path d="M64.8013101,34.3386954 C65.9436687,45.0483071 66.1935559,56.2932308 65.5509792,68.0738037 C64.9084025,79.8543767 62.0168507,92.0274528 56.8762371,104.593397 L57.5188105,104.593397 C59.3751433,105.164577 61.1600518,105.807144 62.8735897,106.521118 C63.5875638,106.806707 64.3015272,107.056595 65.0155013,107.270787 C65.7294754,107.484979 66.3006461,107.806263 66.7290306,108.234647 C68.014184,109.5198 67.585806,111.804483 65.4438836,115.088764 C59.8748855,125.227197 54.948538,135.294081 50.6646933,145.289718 C51.9498467,145.004129 53.3420753,144.540053 54.841421,143.897476 C56.3407666,143.254899 57.4474099,143.005012 58.161384,143.147807 C61.0172805,143.433396 63.0877744,144.004567 64.3729278,144.861336 C64.8013123,145.146926 65.3010867,145.325417 65.872266,145.396814 C66.4434452,145.468211 66.8004269,145.646702 66.9432218,145.932292 C67.5144011,147.074651 67.6928919,148.538276 67.4786997,150.323211 C67.2645074,152.108146 67.0860166,153.357582 66.9432218,154.071556 C66.6576321,157.355837 66.3006504,160.961352 65.872266,164.88821 C65.4438815,168.815068 64.5157291,171.849412 63.0877808,173.991334 C61.5170378,176.418846 59.5179402,178.310849 57.0904282,179.6674 C54.6629162,181.023951 52.2354406,182.701765 49.8079286,184.700893 C47.9515959,186.271636 45.666913,187.485374 42.9538114,188.342142 C40.2407097,189.198911 38.0988195,189.627289 36.5280765,189.627289 C36.2424868,189.627289 36.5637703,189.4131 37.4919367,188.984716 C38.420103,188.556331 39.0269719,187.985161 39.3125616,187.271187 C38.170203,187.413981 37.3848433,187.271189 36.9564588,186.842804 C36.5280743,186.41442 36.0282999,186.057438 35.4571206,185.771848 C34.8859413,185.486259 34.2790724,185.307768 33.6364957,185.236371 C32.993919,185.164973 32.5298428,184.772293 32.2442532,184.058319 C31.9586635,183.48714 31.851569,182.808875 31.9229664,182.023503 C31.9943638,181.238132 32.030062,180.559866 32.030062,179.988687 C32.3156517,173.84851 33.3152004,167.744122 35.0287383,161.675343 C36.7422762,155.606563 38.7413737,149.787761 41.0260909,144.218763 C43.3108081,138.649765 45.6668873,133.330737 48.0943993,128.261521 C50.5219113,123.192305 52.6638015,118.515844 54.5201342,114.232 C53.2349808,114.089205 50.9859961,114.410488 47.7731126,115.19586 C44.560229,115.981231 41.0618083,116.837987 37.2777455,117.766154 C33.4936827,118.69432 29.781073,119.586774 26.139805,120.443543 C22.498537,121.300312 19.6069852,121.72869 17.4650628,121.72869 C16.8938835,121.72869 16.2513165,120.943331 15.5373424,119.372588 C15.2517527,119.086998 14.9661674,118.801413 14.6805777,118.515823 C14.3949881,118.230233 14.180799,117.944648 14.0380042,117.659058 C13.6096197,116.659494 13.2883362,115.410059 13.074144,113.910713 C12.8599517,112.411367 13.1098389,111.37612 13.823813,110.804941 C19.3928112,106.806686 25.0331221,104.236418 30.744915,103.094059 C36.456708,101.951701 42.953775,101.951701 50.236311,103.094059 C50.236311,97.8106506 50.2720091,92.1703397 50.3434065,86.1729571 C50.414804,80.1755745 50.628993,74.3567728 50.98598,68.7163772 C51.3429671,63.0759817 51.7713451,57.8640488 52.271127,53.0804222 C52.7709089,48.2967957 53.4491741,44.4770914 54.3059431,41.621195 C54.7343276,40.1932467 55.3768946,38.7296217 56.2336636,37.2302761 C57.0904325,35.7309304 57.8757923,34.4814945 58.5897664,33.4819307 C58.875356,33.0535463 59.2323377,32.9107536 59.6607222,33.0535484 C60.0891067,33.1963432 60.4817865,33.4819286 60.8387736,33.9103131 C61.1957607,34.3386975 61.5884405,34.7670756 62.016825,35.19546 C62.4452095,35.6238445 62.8021912,35.8380335 63.0877808,35.8380335 C63.3733705,35.9808284 63.6232577,35.695243 63.8374499,34.9812689 C64.0516421,34.2672948 64.3729257,34.0531057 64.8013101,34.3386954 L64.8013101,34.3386954 Z M142.552703,103.950824 C145.551394,103.950824 147.871775,104.4149 149.513916,105.343066 C151.156056,106.271233 152.04851,106.878102 152.191305,107.163691 C152.191305,107.306486 151.870022,107.556373 151.227445,107.91336 C150.584868,108.270347 149.799508,108.663027 148.871342,109.091412 C147.943176,109.519796 146.979325,109.912476 145.979761,110.269463 C144.980198,110.62645 144.052045,110.876337 143.195276,111.019132 C140.33938,111.733106 136.62677,112.625561 132.057336,113.696522 C127.487901,114.767483 122.918536,115.945523 118.349101,117.230676 L115.778807,143.576189 C115.350423,144.147368 114.81495,144.468652 114.172373,144.540049 C113.529797,144.611447 112.851532,144.861334 112.137557,145.289718 C111.709173,145.575308 110.99521,146.039384 109.995646,146.681961 C108.996082,147.324538 108.282119,147.788614 107.853734,148.074204 C106.711376,148.645383 105.961714,148.823874 105.604727,148.609681 C105.24774,148.395489 104.997853,147.931413 104.855058,147.217439 C103.712699,134.22311 103.569907,120.871994 104.426676,107.163691 C105.283444,93.4553882 107.853713,80.1042724 112.137557,67.1099435 C112.423147,66.681559 112.601638,66.3245773 112.673035,66.0389877 C112.744433,65.753398 113.137113,65.6106054 113.851087,65.6106054 C114.136676,65.6106054 114.636451,66.0032852 115.350425,66.7886568 C116.064399,67.5740283 116.63557,68.0381045 117.063954,68.1808993 C118.634697,68.7520786 120.13402,69.5731365 121.561969,70.6440977 C122.989917,71.7150589 123.489691,72.9644949 123.061307,74.3924431 C122.347333,80.104236 121.740464,85.7802451 121.240682,91.4206406 C120.7409,97.0610362 120.134031,102.737045 119.420057,108.448838 C122.704338,107.734864 126.452646,106.913806 130.665093,105.98564 C134.87754,105.057473 138.840037,104.379208 142.552703,103.950824 L142.552703,103.950824 Z M86.863,157.284424 C87.1485897,157.855603 87.3984769,159.069341 87.6126691,160.925673 C87.8268614,162.782006 87.7911632,164.352726 87.5055735,165.637879 C87.0771891,168.208186 86.6845092,170.921247 86.3275221,173.777143 C85.9705351,176.63304 85.9348369,179.917271 86.2204266,183.629937 C95.6448849,181.773604 104.890711,179.203336 113.958182,175.919055 C123.025654,172.634774 132.128687,169.136353 141.267556,165.423688 C141.69594,165.423688 142.017224,165.280895 142.231416,164.995306 C142.445608,164.709716 142.695495,164.709716 142.981085,164.995306 C143.266675,165.280895 143.266675,165.78067 142.981085,166.494644 C142.695495,167.208618 142.552703,167.851185 142.552703,168.422364 C142.552703,170.135902 142.195721,171.34964 141.481747,172.063614 C136.912313,174.633921 132.09306,177.311284 127.023843,180.095783 C121.954627,182.880282 116.778392,185.379154 111.494984,187.592473 C106.211575,189.805793 100.892548,191.590702 95.5377422,192.947252 C90.1829363,194.303803 85.0067016,194.839276 80.0088828,194.553686 C79.2949087,194.268097 78.8308325,193.839719 78.6166402,193.268539 C78.402448,192.69736 78.1525608,192.054793 77.8669711,191.340819 C77.5813815,190.626845 77.474287,189.484503 77.5456844,187.91376 C77.6170818,186.343017 77.5813836,185.200676 77.4385888,184.486701 C77.295794,183.772727 77.0102086,183.058764 76.5818242,182.34479 C76.1534397,181.630816 75.9392507,180.916852 75.9392507,180.202878 C76.2248403,175.490649 77.3671818,170.885585 79.3663093,166.387548 C81.3654368,161.889511 83.8643088,158.855167 86.863,157.284424 L86.863,157.284424 Z M39.3125616,176.347437 C41.0260995,176.633027 42.6325171,176.525932 44.1318628,176.026151 C45.6312084,175.526369 46.9877389,174.9195 48.2014949,174.205526 C49.4152509,173.491551 50.4504978,172.670494 51.3072668,171.742327 C52.1640357,170.814161 52.8066028,169.921707 53.2349873,169.064938 C54.9485251,164.638298 52.8066349,159.783347 46.8092523,154.499939 C44.0961507,161.925269 41.5972788,169.207696 39.3125616,176.347437 L39.3125616,176.347437 Z M225.538392,131.153102 C227.109135,132.723845 227.466117,134.865735 226.609348,137.578837 C226.180963,139.14958 225.395604,140.89879 224.253245,142.82652 C223.110886,144.75425 221.897149,146.681951 220.611995,148.609681 C219.326842,150.537412 218.041708,152.250924 216.756554,153.750269 C215.471401,155.249615 214.400456,156.356258 213.543687,157.070232 C218.113121,156.499053 222.218411,156.499053 225.859679,157.070232 C229.500947,157.641412 231.892724,158.426772 233.035083,159.426335 C233.463467,162.710616 233.249278,165.852055 232.392509,168.850747 C230.964561,171.135464 229.108256,173.74143 226.823539,176.668724 C224.538822,179.596018 222.111346,182.630362 219.541039,185.771848 L212.044349,194.982069 C209.616837,197.98076 207.474946,200.765217 205.618614,203.335524 C209.188484,202.33596 213.75785,201.050826 219.326848,199.480083 C224.895846,197.90934 230.67895,196.374319 236.676332,194.874973 C242.673715,193.375627 248.456819,191.983399 254.025817,190.698245 C259.594815,189.413092 264.164181,188.556336 267.734051,188.127951 L271.589492,187.271187 C271.446697,187.842366 271.268207,188.163649 271.054014,188.235047 C270.839822,188.306444 270.589935,188.699124 270.304345,189.413098 C270.018756,189.841483 269.34049,190.555446 268.269529,191.55501 C267.198568,192.554574 266.520303,193.268537 266.234713,193.696922 C265.235149,195.12487 264.556884,196.374306 264.199897,197.445267 C263.84291,198.516228 263.093248,199.337286 261.95089,199.908465 C254.953943,202.335977 248.278386,204.692057 241.924016,206.976774 C235.569646,209.261491 229.715146,211.403381 224.360341,213.402509 C219.005535,215.401636 214.22198,217.150847 210.009533,218.650192 C205.797085,220.149538 202.334363,221.327577 199.621261,222.184346 C199.050082,222.184346 198.6931,222.041554 198.550305,221.755964 C198.40751,221.470374 198.193321,221.184789 197.907732,220.899199 C197.479347,219.185662 196.908177,217.65064 196.194202,216.294089 C195.480228,214.937539 195.266039,213.473914 195.551629,211.903171 C195.694424,210.475222 196.122802,208.975899 196.836776,207.405156 C198.407519,204.26367 200.442315,200.94374 202.941224,197.445267 C205.440134,193.946794 208.117496,190.484071 210.973393,187.056995 C213.829289,183.62992 216.613747,180.345688 219.326848,177.204202 C222.03995,174.062716 224.396029,171.278259 226.395157,168.850747 C221.825722,169.279131 216.613789,169.993094 210.759202,170.992658 C204.904614,171.992222 199.478492,173.491545 194.480673,175.490673 C194.052289,175.633467 193.588212,175.847656 193.088431,176.133246 C192.588649,176.418836 192.195969,176.561628 191.910379,176.561628 C190.910815,175.562065 190.411041,174.49112 190.411041,173.348761 C190.268246,171.920813 190.625228,170.528584 191.481997,169.172033 C192.338766,167.815482 192.909936,166.49465 193.195526,165.209497 C193.338321,164.923907 193.838095,164.531227 194.694864,164.031445 C195.551633,163.531663 196.479786,163.031889 197.479349,162.532107 C198.478913,162.032325 199.407066,161.532551 200.263835,161.032769 C201.120603,160.532987 201.691774,160.140307 201.977364,159.854718 C204.690466,156.570437 207.403526,153.00062 210.116628,149.145159 C212.82973,145.289699 215.114413,141.577089 216.970745,138.007219 C211.544542,138.292809 205.618646,138.685488 199.192879,139.18527 C192.767112,139.685052 186.484234,140.720299 180.344056,142.291042 C180.058467,142.433837 179.915674,142.933611 179.915674,143.79038 C179.915674,144.647149 179.772881,145.146924 179.487292,145.289718 L176.916998,143.147807 C176.488613,142.576628 176.238726,141.862664 176.167329,141.005895 C176.095931,140.149126 175.91744,139.363766 175.631851,138.649792 C175.346261,137.935818 174.882185,137.257553 174.239608,136.614976 C173.597031,135.9724 173.204352,135.294134 173.061557,134.58016 C173.061557,133.009417 173.632727,131.867076 174.775086,131.153102 C178.487751,129.153974 181.879078,127.47616 184.949166,126.119609 C188.019255,124.763058 191.410581,123.942001 195.123247,123.656411 C197.836348,123.513616 200.692202,123.585012 203.690893,123.870602 C206.689584,124.156192 209.581136,124.620268 212.365635,125.262845 C215.150134,125.905421 217.720403,126.726479 220.076517,127.726043 C222.432632,128.725607 224.253239,129.867948 225.538392,131.153102 L225.538392,131.153102 Z M259.166405,87.8864864 C258.166841,88.6004605 257.095896,89.314424 255.953537,90.0283981 C252.383667,91.5991411 249.599209,92.7414826 247.600082,93.4554567 C245.029775,94.5978153 242.816488,95.8115531 240.960156,97.0967065 C239.103823,98.3818599 237.247518,99.238616 235.391185,99.6670005 C231.821315,100.380975 227.680327,101.202032 222.968098,102.130199 C218.255869,103.058365 213.650805,103.986518 209.152768,104.914684 C204.654731,105.84285 200.585139,106.663908 196.943872,107.377882 C193.302604,108.091856 190.768033,108.520235 189.340085,108.663029 C188.768906,108.663029 187.947848,108.627331 186.876887,108.555934 C185.805926,108.484536 184.663584,108.377442 183.449828,108.234647 C182.236072,108.091852 181.093731,107.984758 180.02277,107.91336 C178.951808,107.841963 178.202147,107.806265 177.773762,107.806265 C174.917866,107.94906 171.91922,108.163249 168.777733,108.448838 C165.636247,108.734428 163.494357,108.877221 162.351998,108.877221 C161.20964,108.877221 160.674167,108.270352 160.745565,107.056596 C160.816962,105.84284 160.995453,104.878989 161.281043,104.165015 C161.852222,103.022656 162.67328,102.380089 163.744241,102.237294 C164.815202,102.0945 166.136035,101.380536 167.706778,100.095383 C171.847827,98.8102294 176.524288,97.5964916 181.736299,96.454133 C186.94831,95.3117744 192.41013,94.169433 198.121923,93.0270744 C199.121487,84.8877694 201.299075,76.8913793 204.654753,69.037664 C208.010432,61.1839487 211.401758,53.8301256 214.828834,46.9759741 C210.259399,45.5480258 204.761881,44.7269679 198.336114,44.5127757 C191.910347,44.2985834 185.770262,44.1200926 179.915674,43.9772978 C178.773315,44.1200926 177.595276,44.0129981 176.38152,43.656011 C175.167764,43.299024 174.489498,42.7635514 174.346704,42.0495773 C174.346704,41.0500135 174.739384,40.5502391 175.524755,40.5502391 C176.310127,40.5502391 177.345374,40.1218611 178.630527,39.2650922 C181.200834,38.551118 184.413669,37.9442491 188.269129,37.4444673 C192.12459,36.9446854 196.051388,36.6947982 200.049643,36.6947982 C204.047898,36.6947982 207.831904,37.0874781 211.401775,37.8728496 C214.971646,38.6582211 217.756103,39.9076571 219.75523,41.621195 C221.468768,43.3347328 222.61111,45.048245 223.182289,46.7617829 C223.467879,47.475757 223.539275,48.2254186 223.39648,49.0107901 C223.253685,49.7961617 223.182289,50.6172196 223.182289,51.4739885 C223.182289,52.7591419 223.217987,54.0085779 223.289385,55.2223339 C223.360782,56.4360899 223.182291,57.6141295 222.753907,58.7564881 C220.611984,62.897538 218.113113,67.0028276 215.257216,71.07248 C212.40132,75.1421325 209.688259,79.6044038 207.117952,84.4594278 C206.403978,85.6017864 205.58292,86.8512224 204.654753,88.2077732 C203.726587,89.564324 202.905529,90.9565526 202.191555,92.3845009 C208.617322,91.2421423 215.042993,90.3139899 221.46876,89.6000157 C227.894527,88.8860416 234.320198,88.3148709 240.745965,87.8864864 C247.742911,87.1725123 253.882996,87.1725123 259.166405,87.8864864 L259.166405,87.8864864 Z M332.727683,65.6106054 C333.298862,70.3228345 333.477353,75.6061637 333.263161,81.4607515 C333.048968,87.3153393 332.549194,93.2412355 331.763822,99.2386181 C330.978451,105.236001 329.943204,111.090501 328.658051,116.802294 C327.372897,122.514087 325.94497,127.654623 324.374227,132.224057 C324.231432,132.366852 324.08864,132.188361 323.945845,131.68858 C323.80305,131.188798 323.588861,130.724721 323.303271,130.296337 C323.017682,130.010747 322.482209,129.76086 321.696838,129.546668 C320.911466,129.332476 320.518786,129.011192 320.518786,128.582808 C320.804376,126.726475 321.232754,123.477941 321.803933,118.83711 C322.375113,114.196278 322.946283,108.877251 323.517463,102.879868 C316.520516,103.451047 309.345184,103.98652 301.991251,104.486302 C294.637317,104.986084 287.533381,105.807141 280.67923,106.9495 C279.822461,107.092295 279.144196,106.949502 278.644414,106.521118 C278.144632,106.092733 277.537763,105.735752 276.823789,105.450162 C275.96702,105.164572 275.18166,104.986081 274.467686,104.914684 C273.753712,104.843287 273.39673,104.522003 273.39673,103.950824 C273.39673,103.23685 273.682316,102.45149 274.253495,101.594721 C274.824674,100.737952 275.467241,99.8811959 276.181215,99.024427 C276.752395,98.4532477 277.43066,97.9177751 278.216031,97.4179932 C279.001403,96.9182114 279.751064,96.4541351 280.465039,96.0257507 C282.178576,94.5978024 283.463711,93.5982537 284.32048,93.0270744 C289.175504,91.5991261 294.887211,90.5638792 301.455773,89.9213025 C308.024335,89.2787258 315.806536,89.1716313 324.80261,89.6000157 C325.088199,86.0301452 325.338086,82.638819 325.552279,79.4259354 C325.766471,76.2130519 325.944962,73.3928965 326.087757,70.9653845 C326.087757,69.5374362 325.873568,68.4307929 325.445183,67.6454214 C325.016799,66.8600499 324.01725,66.5387664 322.446507,66.6815612 C316.02074,66.9671508 309.952051,67.7882087 304.240258,69.1447596 C298.528465,70.5013104 293.887703,71.465161 290.317832,72.0363403 C289.746653,72.0363403 289.318275,71.9649439 289.032685,71.8221491 C288.747096,71.6793543 288.247321,71.5365616 287.533347,71.3937668 L280.67923,70.322811 C280.536435,69.466042 280.607831,68.7877768 280.893421,68.2879949 C281.179011,67.788213 281.607389,66.6101734 282.178568,64.7538407 C284.177695,63.1830976 285.819811,61.8622653 287.104965,60.7913042 C288.390118,59.720343 289.746649,58.9706814 291.174597,58.5422969 C294.458878,57.1143487 298.421375,55.8649127 303.062206,54.7939516 C307.703038,53.7229904 312.236706,52.8305361 316.663345,52.116562 C319.090857,51.8309724 321.161351,51.9023687 322.874889,52.3307532 C323.874453,52.473548 324.695511,52.7948315 325.338087,53.2946134 C325.980664,53.7943953 326.730326,54.1870752 327.587095,54.4726648 C330.300196,55.4722286 332.013709,59.1848383 332.727683,65.6106054 L332.727683,65.6106054 Z M306.167978,128.582808 C304.311646,135.865344 302.419643,142.647996 300.491912,148.930968 C298.564182,155.21394 296.672179,161.06844 294.815847,166.494644 C302.526767,165.20949 311.379913,163.174695 321.375551,160.390196 C331.371189,157.605696 343.294378,153.785992 357.145475,148.930968 C356.859886,149.787737 356.360111,150.89438 355.646137,152.250931 C354.932163,153.607482 354.432389,154.642729 354.146799,155.356703 C353.861209,156.070677 353.254341,156.677546 352.326174,157.177328 C351.398008,157.67711 350.791139,158.212582 350.505549,158.783762 C349.791575,160.068915 349.291801,161.175558 349.006211,162.103725 C348.720621,163.031891 348.078054,163.852949 347.078491,164.566923 C344.365389,166.280461 340.652779,168.172464 335.94055,170.242989 C331.228321,172.313514 326.087784,174.384008 320.518786,176.454533 C314.949788,178.525058 309.130986,180.488457 303.062206,182.34479 C296.993426,184.201123 291.317417,185.700446 286.034009,186.842804 C285.320035,185.129266 284.891657,183.344358 284.748862,181.488025 C284.606067,179.631692 283.9635,177.91818 282.821141,176.347437 C282.107167,175.490668 281.678789,174.598214 281.535994,173.670048 C281.3932,172.741881 281.321803,172.063616 281.321803,171.635232 C281.321803,170.921258 281.607389,170.492879 282.178568,170.350085 C282.749747,170.20729 283.392314,169.921704 284.106288,169.49332 C284.391878,169.20773 284.820256,168.886447 285.391435,168.52946 C285.962615,168.172473 286.319596,167.779793 286.462391,167.351408 C288.033134,162.35359 289.960835,155.606635 292.245553,147.110343 C294.53027,138.614051 296.743556,128.797054 298.885479,117.659058 C299.171068,116.945084 299.456654,116.588102 299.742243,116.588102 C300.170628,116.588102 300.491911,117.01648 300.706104,117.873249 C300.920296,118.730018 301.312976,119.586774 301.884155,120.443543 C302.312539,121.157518 302.990805,122.08567 303.918971,123.228029 C304.847137,124.370387 305.311214,125.369936 305.311214,126.226705 C305.311214,126.940679 305.38261,127.333359 305.525405,127.404756 C305.6682,127.476154 305.882389,127.868834 306.167978,128.582808 L306.167978,128.582808 Z M480.613295,146.789057 C478.471372,142.790802 476.829256,138.150039 475.686898,132.866631 C474.544539,127.583222 473.794878,122.014308 473.437891,116.15972 C473.080904,110.305132 473.045205,104.30784 473.330795,98.1676623 C473.616385,92.0274849 474.116159,86.172985 474.830133,80.6039868 C470.117904,87.3153436 464.620386,94.0622978 458.337414,100.845052 C452.054441,107.627806 445.485978,114.124873 438.631826,120.336448 C431.777675,126.548023 424.85223,132.295428 417.855283,137.578837 C410.858337,142.862245 404.218477,147.431611 397.935505,151.287071 C397.507121,151.572661 397.007346,151.751152 396.436167,151.822549 C395.864988,151.893946 395.365213,152.072437 394.936829,152.358027 C394.222855,152.643617 393.580288,152.929202 393.009108,153.214792 C392.437929,153.500381 391.795362,153.643174 391.081388,153.643174 C389.36785,153.643174 387.725734,152.857814 386.154991,151.287071 C385.012633,149.716328 384.405764,148.217005 384.334366,146.789057 C384.262969,145.361108 383.941685,143.861785 383.370506,142.291042 C382.942122,140.863094 382.335253,139.435167 381.549881,138.007219 C380.76451,136.579271 380.300433,135.079947 380.157639,133.509204 C379.729254,129.510949 379.836349,125.369962 380.478925,121.086117 C381.121502,116.802272 382.013956,112.625586 383.156315,108.555934 C384.298673,104.486281 385.583808,100.559483 387.011756,96.7754197 C388.439704,92.9913569 389.724838,89.4572381 390.867197,86.1729571 L388.296903,86.1729571 C385.726596,86.4585468 383.549008,86.6370376 381.764072,86.708435 C379.979137,86.7798324 378.301323,86.2443599 376.73058,85.1020013 C375.873811,84.3880272 375.159848,83.6026674 374.588668,82.7458985 C374.017489,81.8891295 373.374922,81.0323735 372.660948,80.1756045 C371.804179,79.1760408 371.054517,78.3192847 370.411941,77.6053105 C369.769364,76.8913364 369.876458,76.177373 370.733227,75.4633989 C374.731482,73.1786817 379.586434,71.7507549 385.298227,71.1795756 C391.010019,70.6083963 396.900218,70.6083963 402.968998,71.1795756 C409.037778,71.7507549 414.892278,72.7146055 420.532673,74.0711563 C426.173069,75.4277072 430.849529,76.9627285 434.562194,78.6762664 C434.847784,78.8190612 435.133369,79.2117411 435.418959,79.8543178 C435.704549,80.4968945 435.990134,81.1751597 436.275724,81.8891338 C437.132493,82.8886976 437.489474,83.5312647 437.346679,83.8168543 C436.918295,84.5308284 435.775954,84.8878101 433.919621,84.8878101 L427.172599,84.8878101 C424.530895,84.8878101 421.710739,84.9235083 418.712048,84.9949057 C415.713357,85.0663031 412.643314,85.1733976 409.501828,85.3161925 C406.360342,85.4589873 403.290299,85.60178 400.291608,85.7445748 C398.29248,94.3122642 396.54327,102.558542 395.043924,110.483654 C393.544579,118.408767 392.509332,125.798288 391.938153,132.65244 C396.079202,130.938902 401.755212,128.011652 408.96635,123.870602 C416.177489,119.729552 423.852595,114.874601 431.9919,109.305603 C440.131205,103.736605 448.127595,97.8107085 455.981311,91.5277362 C463.835026,85.244764 470.474886,79.1046787 475.901089,73.1072961 C476.757858,67.8238876 477.614614,63.1117291 478.471383,58.9706793 C478.756973,57.3999362 479.185351,55.7935185 479.75653,54.1513781 C480.327709,52.5092376 480.970276,51.117009 481.68425,49.9746504 C482.826609,47.9755228 483.719063,46.2263125 484.36164,44.7269668 C485.004217,43.2276212 485.682482,41.6925999 486.396456,40.1218568 C486.824841,39.6934723 487.396011,39.836265 488.109985,40.5502391 C488.395575,40.8358288 488.716859,41.1928105 489.073846,41.621195 C489.430833,42.0495794 489.609323,42.6207502 489.609323,43.3347243 C489.609323,49.3321069 489.180945,55.5435885 488.324177,61.9693556 C487.324613,70.1086605 486.539253,77.4267854 485.968074,83.9239499 C485.396894,90.4211144 484.932818,96.5968978 484.575831,102.451486 C484.218844,108.306073 484.004655,114.053479 483.933258,119.693874 C483.86186,125.33427 483.826162,131.367261 483.826162,137.793028 C483.826162,138.507002 483.683369,139.32806 483.39778,140.256226 C483.11219,141.184392 482.969397,142.00545 482.969397,142.719424 L482.326824,147.860012 C481.755645,148.002807 481.184474,147.645826 480.613295,146.789057 L480.613295,146.789057 Z M476.11528,156.64185 C476.829254,156.64185 477.471821,156.856039 478.043001,157.284424 C478.61418,157.712808 479.185351,158.212582 479.75653,158.783762 C480.470504,159.497736 481.148769,160.068907 481.791346,160.497291 C482.433923,160.925676 482.68381,161.782432 482.541015,163.067585 C483.540579,166.923045 483.683372,170.707051 482.969397,174.419717 C482.255423,178.132382 480.970289,181.559407 479.113956,184.700893 C477.257624,187.842379 475.008639,190.626836 472.366935,193.054348 C469.725231,195.48186 467.047868,197.409561 464.334766,198.837509 C461.907254,200.122663 459.551175,200.76523 457.266458,200.76523 C455.981304,200.76523 455.08885,200.408248 454.589068,199.694274 C454.089286,198.9803 453.62521,198.19494 453.196826,197.338171 C452.911236,196.481402 452.375763,195.838835 451.590392,195.410451 C450.80502,194.982066 450.269548,194.339499 449.983958,193.48273 C449.555574,192.054782 449.341385,190.484063 449.341385,188.770525 C449.055795,181.916373 450.483722,175.383608 453.625208,169.172033 C456.766694,162.960458 460.336511,157.712827 464.334766,153.428983 C465.477125,152.286624 466.262484,151.929642 466.690869,152.358027 C467.119253,152.786411 467.690424,153.071997 468.404398,153.214792 C468.975578,153.357586 469.51105,153.500379 470.010832,153.643174 C470.510614,153.785969 471.046086,154.000158 471.617266,154.285747 C471.760061,154.428542 472.009948,154.749826 472.366935,155.249608 C472.723922,155.749389 473.045205,156.356258 473.330795,157.070232 C474.758743,156.784643 475.686896,156.64185 476.11528,156.64185 L476.11528,156.64185 Z M460.050943,188.770525 C464.620377,187.199782 468.47578,184.665212 471.617266,181.166738 C474.758752,177.668265 477.114831,174.205543 478.685574,170.778467 C479.827933,168.350955 478.043024,166.780235 473.330795,166.066261 C472.616821,166.066261 471.902857,166.030563 471.188883,165.959166 C470.474909,165.887768 469.68955,165.85207 468.832781,165.85207 C465.691294,170.27871 463.44231,174.705283 462.085759,179.131922 C460.729208,183.558562 460.050943,186.771397 460.050943,188.770525 L460.050943,188.770525 Z" id="한글코딩" sketch:type="MSShapeGroup"></path>
        </g>
    </g>
</svg>